<svg width="14" height="16" xmlns="http://www.w3.org/2000/svg" xmlns:xlink="http://www.w3.org/1999/xlink">
  <defs>
    <path d="M13.61755 6.53636h-2.2423V4.30212c0-2.0172-1.45655-3.78653-3.46345-4.20698-.60522-.1268-1.21867-.1269-1.8237 0C4.0813.51559 2.62474 2.28492 2.62474 4.3022v2.23424H.38244c-.2112 0-.38244.16836-.38244.376s.17124.37599.38245.37599h13.2351c.2112 0 .38245-.16835.38245-.376 0-.20763-.17124-.37608-.38245-.37608zm-2.79273 5.38327c.11234-.0987.27354-.12323.41103-.0627.13759.06054.22613.19496.22632.3432V15.624c0 .20764-.17124.37599-.38245.37599H2.92047c-.2112 0-.38245-.16835-.38245-.376v-3.42388c0-.14823.08864-.28255.22613-.34318.13758-.06072.2986-.0361.41103.0627L6.96601 15.248h.06798zm.5906-4.13864l-.16819 1.65409c-.08299.81515-.77388 1.4299-1.60724 1.4299H8.9708c-.806 0-1.47778-.56879-1.5973-1.35236l-.14943-.97955h-.44823l-.14944.97955c-.11952.78357-.79129 1.35236-1.5973 1.35236h-.66919c-.83335 0-1.52425-.61466-1.60714-1.4299l-.16818-1.65409h8.83082zM7.75241.83067c1.656.34695 2.85804 1.80693 2.85804 3.47154v1.03492H3.38964V4.30221c0-1.66461 1.20194-3.12459 2.85804-3.47154.4991-.10452 1.00555-.10452 1.50474 0z" id="a"/>
  </defs>
  <g fill="none" fill-rule="evenodd">
    <mask id="b" fill="#fff">
      <use xlink:href="#a"/>
    </mask>
    <use fill="#000" fill-rule="nonzero" xlink:href="#a"/>
    <g mask="url(#b)" fill="#1C2026">
      <path d="M-5-4h24v24H-5z"/>
    </g>
  </g>
</svg>
