<svg width="18" height="18" xmlns="http://www.w3.org/2000/svg">
  <path d="M8.99888.66667c3.45224 0 6.25084 2.85773 6.25084 6.38293v.5397c1.2488.44928 2.084 1.65435 2.08361 3.00637-.0024 1.21006-.67479 2.31466-1.73634 2.85246v.339c0 1.6702-1.28559 2.83686-3.12542 2.83686h-1.23489c-.31435.55598-.95521.82704-1.5625.66088-.60727-.16616-1.02955-.7281-1.02955-1.3701 0-.64198.42228-1.20393 1.02956-1.37009.60728-.16616 1.24814.1049 1.5625.66088h1.23488c.8397 0 1.73634-.37304 1.73634-1.41843v-.40425c-.21817-.19851-.34425-.48176-.34727-.78013V7.0496c0-2.74182-2.17668-4.9645-4.86176-4.9645S4.13712 4.30778 4.13712 7.0496v5.55315c-.00005.34532-.16425.66914-.44038.8685-.27614.19935-.62986.24943-.9487.13432-1.2476-.4515-2.08137-1.65653-2.08137-3.00813s.83378-2.55663 2.08137-3.00813V7.0496c0-3.5252 2.7986-6.38293 6.25084-6.38293zm0 10.99353c.47948 0 .86817.3969.86817.88652 0 .4896-.3887.88652-.86817.88652-.47948 0-.86817-.39691-.86817-.88652s.3887-.88652.86817-.88652zm-.35525-7.06551c1.28834-.18114 2.5101.63593 2.86239 1.91425.35229 1.27833-.27286 2.62611-1.46464 3.15766-.10568.04716-.17388.15386-.17363.27163v.39361c0 .48961-.3887.88652-.86817.88652-.47948 0-.86818-.3969-.86818-.88652v-.39361c.00017-.82222.477-1.56634 1.21475-1.89573.39705-.17696.60559-.62572.4887-1.0517-.11688-.42596-.5234-.69875-.9527-.63928-.42928.05948-.74993.433-.75144.87538 0 .48961-.3887.88652-.86817.88652-.47921 0-.8678-.39648-.86818-.88581.00087-1.32798.96093-2.45179 2.24927-2.63292z" fill="#FFF" fill-rule="evenodd" opacity=".86614"/>
</svg>
