<svg width="18" height="18" xmlns="http://www.w3.org/2000/svg" xmlns:xlink="http://www.w3.org/1999/xlink" role="img" focusable="false">
  <title>Latest Offers!</title>
  <defs>
    <path d="M8.24269 12.03028v5.3037H3.03435c-.47037 0-.85185-.37778-.85185-.8426v-4.4611h6.06019zm7.57564-.00047v4.46204c0 .46482-.38148.84167-.85185.84167H9.75815v-5.3037h6.06018zM16.5 4.45463h-1.70556c.16575-.34537.26667-.72778.26667-1.13704 0-1.4611-1.18981-2.65092-2.65185-2.65092-1.74167 0-2.79722 1.22222-3.40926 2.3787C8.38796 1.88889 7.33333.66667 5.59167.66667c-1.46204 0-2.65278 1.18981-2.65278 2.65092 0 .40926.10185.79167.2676 1.13704H1.50092c-.46019 0-.83426.5426-.83426 1.21296v3.63519c0 .66944.37407 1.21296.83426 1.21296H8.24259V4.45463h1.51574v6.06111H16.5c.46019 0 .83333-.54352.83333-1.21296V5.66759c0-.67037-.37314-1.21296-.83333-1.21296zm-4.09074 0h-2.38982c.35741-.94074 1.0926-2.27222 2.38982-2.27222.62685 0 1.13704.50926 1.13704 1.13518 0 .62685-.51019 1.13704-1.13704 1.13704zm-6.8176 0c-.62685 0-1.13703-.51019-1.13703-1.13704 0-.62592.51018-1.13518 1.13704-1.13518 1.29722 0 2.0324 1.33148 2.38981 2.27222H5.59167z" id="a"/>
  </defs>
  <use fill="#FFF" xlink:href="#a" fill-rule="evenodd"/>
</svg>
