<svg width="18" height="18" xmlns="http://www.w3.org/2000/svg" xmlns:xlink="http://www.w3.org/1999/xlink">
  <defs>
    <path d="M2.5185 8.07397c0-3.06385 2.49162-5.55548 5.55547-5.55548 3.06385 0 5.55548 2.49163 5.55548 5.55548 0 3.06385-2.49163 5.55548-5.55548 5.55548-3.06385 0-5.55548-2.49163-5.55548-5.55548m14.54332 7.6786l-3.14348-3.1444c.975-1.25369 1.56295-2.82496 1.56295-4.5342 0-4.0842-3.3231-7.4073-7.4073-7.4073-4.08421 0-7.40731 3.3231-7.40731 7.4073s3.3231 7.4073 7.4073 7.4073c1.70924 0 3.28051-.58795 4.5342-1.56294l3.1444 3.14348c.18055.18055.41759.2713.65462.2713.23703 0 .47407-.09075.65462-.2713.36203-.36203.36203-.94721 0-1.30924" id="a"/>
  </defs>
  <use fill="#FFF" xlink:href="#a" fill-rule="evenodd" opacity=".86614"/>
</svg>
