<svg width="20" height="20" xmlns="http://www.w3.org/2000/svg" xmlns:xlink="http://www.w3.org/1999/xlink">
  <defs>
    <rect id="locker_a" x="0" y="0" width="20" height="20" rx="10"/>
    <path id="locker_c" d="M11.1727 6.07813h-.3454V4.78906c0-1.74746-1.39174-3.16406-3.10855-3.16406-1.7168 0-3.10855 1.4166-3.10855 3.16406v1.28906h-.3454c-.50868 0-.92105.41974-.92105.9375v4.92188c0 .51777.41237.9375.92105.9375h6.9079c.50868 0 .92105-.41973.92105-.9375V7.01562c0-.51776-.41237-.9375-.92105-.9375zm-3.45395 4.21875c-.50868 0-.92105-.41974-.92105-.9375 0-.51777.41237-.9375.92105-.9375s.92105.41973.92105.9375c0 .51776-.41237.9375-.92105.9375zm1.95724-4.45313c0 .12944-.1031.23438-.23027.23438H5.99178c-.12717 0-.23027-.10494-.23027-.23438V4.78906c0-1.10025.87629-1.99218 1.95724-1.99218s1.95724.89193 1.95724 1.99218v1.05469z" />
  </defs>
  <g fill="none" fill-rule="evenodd">
    <g opacity=".87">
      <mask id="locker_b" fill="#fff">
        <use xlink:href="#locker_a"/>
      </mask>
      <g mask="url(#locker_b)" fill="#1C2026">
        <path d="M0 0h20v20H0z"/>
      </g>
    </g>
    <g transform="translate(2.5 2.5)">
      <mask id="locker_d" fill="#fff">
        <use xlink:href="#locker_c"/>
      </mask>
      <use fill="#000" fill-rule="nonzero" xlink:href="#locker_c"/>
      <g mask="url(#locker_d)" fill="#FFF">
        <path d="M0 0h15v15H0z"/>
      </g>
    </g>
  </g>
</svg>
