<svg width="14" height="14" xmlns="http://www.w3.org/2000/svg" xmlns:xlink="http://www.w3.org/1999/xlink">
  <title>Refresh</title>
  <defs>
    <path id="refresh" d="M4.8675 7.83333l-2.05917 1.8925C3.7 11.095 5.245 12 7 12c2.4775 0 4.53417-1.80167 4.93083-4.16667H13.615c-.41 3.28834-3.215 5.83334-6.615 5.83334-2.24083 0-4.22333-1.10584-5.4325-2.80084L.33333 12V7.83333H4.8675zM7 .33333c2.26667 0 4.26917 1.13084 5.47333 2.86L13.66667 2v4.16667H9.5l1.77-1.77C10.39167 2.95917 8.8075 2 7 2 4.5225 2 2.46583 3.80167 2.06917 6.16667H.385C.795 2.87833 3.6.33333 7 .33333z" />
  </defs>
  <g fill="none" fill-rule="evenodd" opacity=".38">
    <mask id="refresh_mask" fill="#fff">
      <use xlink:href="#refresh"/>
    </mask>
    <use fill="#030104" fill-rule="nonzero" xlink:href="#refresh"/>
    <g mask="url(#refresh_mask)" fill="#1C2026">
      <path d="M-3-3h20v20H-3z"/>
    </g>
  </g>
</svg>
