<svg width="32" height="32" xmlns="http://www.w3.org/2000/svg" xmlns:xlink="http://www.w3.org/1999/xlink">
  <defs>
    <path id="logout" d="M7.78 0c.3344 0 .6053.2514.6053.5616 0 .307-.271.5584-.6052.5584H3.276c-1.1402 0-2.0656.8588-2.0692 1.92v9.9167c0 1.058.929 1.92 2.0691 1.92h4.4302c.3343 0 .6052.2515.6052.5617 0 .307-.271.5583-.6052.5583H3.276c-1.8051 0-3.276-1.3649-3.276-3.04V3.04C0 1.3649 1.4709 0 3.276 0zm3.7019 4.3722c.2357-.2187.6193-.2187.855 0l3.4801 3.2262c.0176.013.0282.0294.0423.0424l.007.0065c.0105.0098.0176.0229.0281.036.0036.0032.0036.0065.007.0098a.2395.2395 0 01.0247.0391l.014.0278.0106.0212c.0036.0033.0036.0033.0036.0066.007.0163.014.0293.0176.0457.0035 0 .0035.0032.0035.0065.0035.0163.007.0294.0105.0457a.0276.0276 0 01.0035.0163c.0036.0131.007.0262.007.0392A.2943.2943 0 0116 7.9967c0 .0196 0 .036-.0035.0555-.0035.0131-.0035.0262-.007.0392-.0036.0066-.0036.0098-.0036.0164 0 .0163-.007.0293-.0105.0457-.0036 0-.0036.0032-.0036.0065-.007.0163-.0105.0326-.0176.0457-.0035.0033-.0035.0033-.0035.0065a.512.512 0 01-.021.0425s-.0036.0033-.0036.0065c-.007.013-.0176.0261-.0246.0392-.0036.0033-.0036.0065-.007.0098-.0071.013-.0177.0229-.0282.036l-.007.0064a.6504.6504 0 00-.0458.0458l-3.459 3.2098c-.1161.1077-.271.1632-.4258.1632s-.3096-.0555-.4257-.1632c-.2358-.2188-.2358-.5747 0-.7935l2.4315-2.2563H4.1944c-.3343 0-.6052-.2515-.6052-.5617 0-.3069.271-.5583.6052-.5583h9.7365l-2.449-2.2727c-.2358-.2188-.2358-.5747 0-.7935z"/>
  </defs>
  <g opacity=".87" transform="translate(8 8)" fill="none" fill-rule="evenodd">
    <mask id="logoutMask" fill="#fff">
      <use xlink:href="#logout"/>
    </mask>
    <use fill="#000" fill-rule="nonzero" xlink:href="#logout"/>
    <g mask="url(#logoutMask)" fill="#1C2026">
      <path d="M-4-4h24v24H-4z"/>
    </g>
  </g>
</svg>
