<svg width="20" height="20" xmlns="http://www.w3.org/2000/svg" xmlns:xlink="http://www.w3.org/1999/xlink">
  <defs>
    <rect id="a" x="0" y="0" width="20" height="20" rx="10"/>
    <path d="M9.19878 7.02632c1.47728.00185 2.6744 1.2261 2.67622 2.73684 0 1.51151-1.19818 2.73684-2.67622 2.73684-1.47803 0-2.67622-1.22533-2.67622-2.73684 0-1.51152 1.19819-2.73684 2.67622-2.73684zm-6.01505 2.0244c.0359-.01746.07844-.0122.10925.0135.75389.53123 1.62987.85291 2.542.93346.0475.00611.08448.04515.08893.0939.04213.44346.17064.87381.37797 1.26568a.1073.1073 0 01-.00461.10814c-.02093.03242-.05762.05041-.09544.04681-1.75848-.16463-3.07683-.83663-3.07683-1.64379V9.1459c-.00004-.04066.02282-.0777.05873-.09517zm6.01505-.97177c-.22739 0-.41172.1885-.41172.42105v1.1579c0 .05813-.04609.10526-.10294.10526h-.3088c-.07927-.00018-.1516.04621-.18596.11928-.03436.07306-.02464.15981.02498.22303l.82346 1.05264c.03917.0499.0984.07887.16098.07873.06258.00014.12181-.02883.16099-.07873l.82345-1.05264c.04963-.06322.05934-.14997.02498-.22303-.03436-.07307-.10669-.11946-.18597-.11928h-.3088c-.05684 0-.10292-.04713-.10292-.10527V8.5c0-.23254-.18434-.42105-.41173-.42105zm-6.01505-.92296c.0359-.01747.07844-.01221.10925.01348.84908.58563 1.83895.9219 2.86191.97221.03348.00343.06321.02337.07962.0534a.10737.10737 0 01.00273.09734c-.17616.37185-.28337.77387-.3162 1.18569-.00245.02882-.01635.05535-.03844.07341a.1017.1017 0 01-.0785.02216c-1.55591-.224-2.6791-.85515-2.6791-1.6v-.72252c-.00004-.04066.02282-.07771.05873-.09517zm0-1.89516c.0359-.01746.07844-.01221.10925.01349.79752.66442 2.30114 1.01515 3.74383 1.01515 1.44269 0 2.94549-.35031 3.743-1.01431.03081-.0257.07334-.03095.10925-.01349.03591.01746.05873.05451.05873.09517v.7221c-.00826.22664-.10021.44164-.25733.6017-.03021.03406-.07856.04412-.1194.02483-.42993-.20427-.89821-.3103-1.37228-.31073-1.01896.00032-1.98008.48422-2.6017 1.3099-.02045.02797-.05316.04374-.08728.0421-1.9104-.1099-3.3848-.81432-3.3848-1.6678V5.356c0-.04066.02282-.07771.05873-.09517zM7.03681 2.5c2.1602 0 3.9114.75405 3.9114 1.68421S9.197 5.86842 7.0368 5.86842c-2.1602 0-3.9114-.75405-3.9114-1.6842 0-.93017 1.7512-1.68422 3.9114-1.68422z" id="c"/>
  </defs>
  <g fill="none" fill-rule="evenodd">
    <g opacity=".87">
      <mask id="b" fill="#fff">
        <use xlink:href="#a"/>
      </mask>
      <g mask="url(#b)" fill="#1C2026">
        <path d="M0 0h20v20H0z"/>
      </g>
    </g>
    <g transform="translate(2.5 2.5)">
      <mask id="d" fill="#fff">
        <use xlink:href="#c"/>
      </mask>
      <use fill="#000" fill-rule="nonzero" xlink:href="#c"/>
      <g mask="url(#d)" fill="#FFF">
        <path d="M0 0h15v15H0z"/>
      </g>
    </g>
  </g>
</svg>
