<svg width="18" height="14" xmlns="http://www.w3.org/2000/svg" xmlns:xlink="http://www.w3.org/1999/xlink">
  <defs>
    <filter id="a">
      <feColorMatrix in="SourceGraphic" values="0 0 0 0 1.000000 0 0 0 0 1.000000 0 0 0 0 1.000000 0 0 0 1.000000 0"/>
    </filter>
    <path d="M14.83867.33333c1.37833 0 2.5 1.12167 2.5 2.5v8.33334c0 1.37833-1.12167 2.5-2.5 2.5H3.172c-1.37833 0-2.5-1.12167-2.5-2.5V2.83333c0-1.37833 1.12167-2.5 2.5-2.5zm1.40787 1.875c-.23012-.39857-.73978-.53514-1.13835-.30502L8.99968 5.42953 2.8918 1.9033c-.39857-.23012-.90823-.09355-1.13835.30502-.23012.39858-.09356.90824.30502 1.13836l6.4952 3.75c.14068.08123.29522.11677.44646.11123.15112.0055.30557-.03005.44619-.11123l6.49519-3.75c.39858-.23012.53514-.73978.30502-1.13836z" id="b"/>
  </defs>
  <g transform="translate(-211 -11)" filter="url(#a)" fill="none" fill-rule="evenodd" opacity=".86614">
    <use fill="#FFF" xlink:href="#b" transform="translate(211 11)"/>
  </g>
</svg>
