<svg width="32" height="32" xmlns="http://www.w3.org/2000/svg" xmlns:xlink="http://www.w3.org/1999/xlink">
  <defs>
    <path d="M7.78007 0c.3343 0 .60524.25143.60524.56163 0 .30694-.27095.55837-.60524.55837H3.27601c-1.1401 0-2.06554.85878-2.06906 1.92v9.91673c0 1.05796.92896 1.92 2.06906 1.92h4.43017c.33429 0 .60523.25143.60523.56164 0 .30694-.27094.55836-.60523.55836H3.27601c-1.80515 0-3.27601-1.3649-3.27601-3.04V3.04C0 1.3649 1.47086 0 3.276 0zm3.70179 4.37224c.23576-.21877.6193-.21877.85507 0l3.4801 3.22613c.01759.01306.02814.02939.04222.04245l.00704.00653c.01055.0098.01759.02285.02815.03592.00351.00326.00351.00653.00703.0098.01056.01305.0176.02611.02464.03917l.01407.02776.01056.02122c.00352.00327.00352.00327.00352.00654.00703.01632.01407.02938.01759.0457.00352 0 .00352.00327.00352.00654.00352.01633.00704.02939.01055.04571.00352.00653.00352.0098.00352.01633.00352.01306.00704.02612.00704.03918C16 7.96082 16 7.97714 16 7.99673c0 .0196 0 .03592-.00352.05551-.00352.01307-.00352.02613-.00704.03919-.00352.00653-.00352.0098-.00352.01633 0 .01632-.00703.02938-.01055.0457-.00352 0-.00352.00327-.00352.00654-.00704.01633-.01056.03265-.0176.04571-.00351.00327-.00351.00327-.00351.00653-.00704.01633-.01408.0294-.02112.04245 0 0-.00351.00327-.00351.00653-.00704.01307-.0176.02613-.02464.03919-.00352.00326-.00352.00653-.00703.0098-.00704.01306-.0176.02285-.02815.03591l-.00704.00653c-.01408.01306-.02815.02613-.04575.04572l-3.45898 3.2098c-.11612.10775-.27095.16326-.42578.16326-.15482 0-.30965-.05551-.42577-.16327-.23576-.21877-.23576-.5747 0-.79347l2.4315-2.25632H4.1944c-.33428 0-.60523-.25143-.60523-.56164 0-.30693.27095-.55836.60523-.55836h9.73653L11.48186 5.1657c-.23576-.21877-.23576-.57469 0-.79347z" id="a"/>
  </defs>
  <g fill="none" fill-rule="evenodd">
    <g opacity=".87" transform="translate(8 8)">
      <mask id="b" fill="#fff">
        <use xlink:href="#a"/>
      </mask>
      <use fill="#000" fill-rule="nonzero" xlink:href="#a"/>
      <g mask="url(#b)" fill="#1C2026">
        <path d="M-4-4h24v24H-4z"/>
      </g>
    </g>
  </g>
</svg>
