<svg width="122" height="25" xmlns="http://www.w3.org/2000/svg">
  <g fill="#F2F2F2">
    <path class="logo__first-letter" d="M0 21.99386l1.0935-5.1111h4.55625c.59629-.03231 1.14968-.31827 1.51875-.78478.39864-.5686.52115-1.2843.33413-1.95188 0 0-1.2555-5.95625-1.42763-6.6203-.52006-2.3431.32927-4.77778 2.19713-6.29833C9.17179.54325 10.24376.11856 11.37037 0h7.59375l-1.134 5.09099h-4.05c-.74098-.07813-1.47384.20716-1.96425.76465a1.62662 1.62662 0 00-.33412.6238 3.5 3.5 0 000 1.80096c0 .07043 1.134 5.39282 1.134 5.39282a11.27265 11.27265 0 01.29363 1.93176c.09122 1.57707-.4144 3.13104-1.4175 4.35651-.92687 1.08549-2.21824 1.80038-3.63488 2.01225a7.98764 7.98764 0 01-1.20488.07043L0 21.99387z"/>
    <path d="M108.07425 9.02888H103.275l-.15188.70428c-1.18661-.76746-2.58487-1.14736-3.99937-1.08661-3.98925 0-7.70512 3.68241-7.70512 8.0993 0 4.90988 3.55387 6.51968 6.075 6.51968 1.00265-.00695 1.99142-.23368 2.89575-.66405l-.07088.32196h4.779l2.97675-13.89456zm-6.075 7.04286c-.1388 1.67222-1.52172 2.97274-3.20963 3.01837-.775.03298-1.52762-.26277-2.07032-.81356-.54269-.5508-.82435-1.30475-.7748-2.07401-.06267-1.8654 1.4036-3.43035 3.2805-3.50131.86039-.01726 1.68112.35895 2.22639 1.02054.54526.66158.75469 1.5353.56811 2.3701l-.02025-.02013zM60.59813 22.92344H55.4445l-1.782-3.44094-2.81475 3.44094h-5.7915l6.41925-7.10323-3.5235-6.78127h5.19412l1.58963 3.5818 2.69325-3.5818h5.832l-6.38888 7.18372zM90.86175 13.19423a7.52995 7.52995 0 01-.15188 1.57961l-1.782 8.1496h-4.59674l1.63012-7.69684c.27337-1.00613-.74925-1.91164-1.75163-1.91164-1.00237 0-1.73137.4427-2.1465 2.38452l-1.5795 7.22396H75.9375l1.65037-7.69684c.11944-.49588-.01262-1.01847-.35364-1.39945-.34102-.38099-.84793-.57225-1.35748-.51219-1.0125 0-1.782.4427-2.19712 2.38452l-1.52888 7.22396h-4.6575l2.96662-13.89456h4.24238l-.29363 1.28783c.88062-1.10863 2.24551-1.72683 3.66526-1.6601 1.52438-.08064 2.96488.69732 3.726 2.01225.9891-1.34687 2.59737-2.10429 4.27275-2.01225 3.02737 0 4.78912 1.89151 4.78912 4.53762zm30.63825 0a7.5503 7.5503 0 01-.17212 1.57961l-1.76175 8.1496h-4.97138l1.65037-7.68678a2.78027 2.78027 0 00.07088-.5735c.0425-.37725-.09452-.7526-.37054-1.01505-.27602-.26244-.65943-.38191-1.03683-.32309-.96188 0-1.782.43264-2.19713 2.38452l-1.52887 7.2139h-4.60688l2.96663-13.8845h4.2525l-.29363 1.27777c.9228-1.11707 2.32408-1.73304 3.77662-1.6601 2.7945 0 4.22213 1.89151 4.22213 4.53762zm-82.23525 2.16316c.01617 2.08832-.80596 4.0969-2.2844 5.58115-1.47844 1.48424-3.49125 2.3217-5.59285 2.32699h-.22275c-3.89813 0-7.1685-2.51531-7.1685-6.73097-.01347-2.08137.8057-4.0828 2.27728-5.56399 1.47158-1.48119 3.47503-2.32078 5.5696-2.33411h.21262c3.9285-.01003 7.209 2.50528 7.209 6.72093zm-10.60087.94576c-.05974.75182.2013 1.49397.71935 2.04511.51805.55114 1.24537.86052 2.00427.85253.91128-.0463 1.76535-.4555 2.36932-1.13518.60396-.67968.90687-1.5725.8403-2.4768.05426-.76182-.2167-1.51113-.7465-2.0644-.5298-.55325-1.26949-.85935-2.03787-.8433-.90337.05906-1.7452.4756-2.33703 1.15637-.59184.68077-.88427 1.56893-.81184 2.46567zm-6.70276-7.27427l.58725-2.73666h-4.38412l-2.27812 10.62466c-.94163 4.37663 1.8225 6.33874 5.20425 6.33874a5.4606 5.4606 0 001.18462-.1209l.84038-3.93394H22.275c-1.5795 0-2.3895-.61374-2.07562-2.06256l1.0125-4.8797H23.895l.7695-3.27996-2.70338.0503zM38.95088 22.92344L41.9175 9.02888h4.6575l-3.0375 13.89456zM61.7625 22.92344l2.93625-13.89456h4.60688L66.339 22.92344zM42.77813 5.04463l-.5265 2.48512h4.59674l.53663-2.48512zM65.54925 5.04463l-.5265 2.48512h4.59675l.53663-2.48512z"/>
  </g>
</svg>
